<?xml version="1.0"?>
<svg xmlns="http://www.w3.org/2000/svg" id="Capa_1" enable-background="new 0 0 512 512" height="512px" viewBox="0 0 512 512" width="512px"><g><g clip-rule="evenodd" fill-rule="evenodd"><path d="m159.366 79.329 31.918-4.649 39.487 4.649 6.123 28.176-6.123 43.23-66.189-33.081c-3.515-1.758-5.216-4.961-5.216-8.447z" fill="#null"/><path d="m352.663 79.329-41.103-4.365-30.302 4.365-4.395 28.771 4.395 42.634 66.19-33.081c3.401-1.701 5.216-4.648 5.216-8.447v-29.877z" fill="#null"/><path d="m230.771 74.878h50.486v119.992h-50.486z" fill="#null"/><path d="m34.696 24.987h442.636c14.938 0 27.185 12.218 27.185 27.185 0 14.939-12.246 27.157-27.185 27.157h-442.636c-14.967 0-27.184-12.218-27.184-27.157.001-14.967 12.217-27.185 27.184-27.185z" fill="#null"/><path d="m174.872 198.441c-1.049-3.146.566-5.527 3.968-5.527h154.349c3.572 0 5.046 2.239 3.94 5.527l-20.523 60.776c-1.134 3.373-3.94 5.527-7.682 5.527h-104.203c-5.471 0-7.852-1.248-9.07-4.848z" fill="#null"/><path d="m304.048 192.914h29.141c3.572 0 5.046 2.239 3.94 5.527l-20.523 60.776c-1.134 3.373-3.94 5.527-7.682 5.527h-29.141c3.742 0 6.548-2.154 7.682-5.527l20.552-60.776c1.105-3.288-.369-5.527-3.969-5.527z" fill="#null"/><path d="m201.659 79.329h29.112v71.405l-29.112-14.543zm151.004 0h-29.141v29.877c0 3.799-1.814 6.746-5.216 8.447l-37.049 18.538v14.543l66.19-33.081c3.401-1.701 5.216-4.648 5.216-8.447z" fill="#null"/><path d="m475.376 52.172c0 14.939-12.218 27.157-27.156 27.157h29.112c14.938 0 27.185-12.218 27.185-27.157 0-14.967-12.246-27.185-27.185-27.185h-29.112c14.938 0 27.156 12.218 27.156 27.185z" fill="#null"/><path d="m252.117 79.329h29.141v113.585h-29.141z" fill="#null"/></g><path d="m120.531 32.471c-4.14 0-7.513-3.345-7.513-7.483s3.373-7.512 7.513-7.512h356.801c9.553 0 18.228 3.912 24.491 10.177 6.293 6.292 10.177 14.966 10.177 24.519 0 9.525-3.884 18.199-10.177 24.492-6.264 6.265-14.938 10.177-24.491 10.177h-39.373c-4.139 0-7.513-3.373-7.513-7.512s3.374-7.484 7.513-7.484h39.373c5.414 0 10.318-2.211 13.89-5.782s5.783-8.505 5.783-13.891c0-5.414-2.211-10.347-5.783-13.918-3.571-3.572-8.476-5.783-13.89-5.783zm127.986 260.819c0-4.167 3.345-7.512 7.483-7.512s7.512 3.345 7.512 7.512v103.807c0 4.139-3.373 7.483-7.512 7.483s-7.483-3.345-7.483-7.483zm59.131 3.516c-1.928-3.658-.567-8.193 3.089-10.121 3.629-1.955 8.165-.566 10.092 3.09l55.135 102.844c1.956 3.656.567 8.163-3.062 10.119-3.656 1.928-8.164.566-10.119-3.09zm95.557 178.244c-1.928-3.628-.566-8.163 3.09-10.091 3.629-1.956 8.164-.567 10.092 3.061l7.37 13.748c1.928 3.628.566 8.163-3.09 10.091-3.629 1.956-8.164.567-10.092-3.061zm-23.896-44.562c-1.928-3.628-.566-8.163 3.09-10.091 3.629-1.956 8.164-.567 10.092 3.061l7.37 13.721c1.956 3.656.567 8.191-3.062 10.119-3.656 1.956-8.192.567-10.12-3.062zm-188.138-140.714c1.928-3.656 6.464-5.045 10.12-3.09 3.628 1.928 5.018 6.463 3.061 10.121l-55.135 102.842c-1.928 3.656-6.463 5.018-10.092 3.09-3.656-1.956-5.017-6.463-3.09-10.119zm-95.557 178.247c1.956-3.629 6.463-5.018 10.119-3.061 3.629 1.928 5.018 6.463 3.062 10.091l-7.342 13.748c-1.956 3.629-6.463 5.017-10.119 3.061-3.629-1.928-5.018-6.463-3.062-10.091zm23.897-44.563c1.928-3.628 6.463-5.017 10.119-3.061 3.629 1.928 5.018 6.463 3.061 10.091l-7.37 13.748c-1.927 3.629-6.463 5.018-10.092 3.062-3.656-1.928-5.017-6.463-3.09-10.119zm171.271-84.954c-1.163-3.969 1.105-8.136 5.045-9.299 3.969-1.162 8.136 1.106 9.298 5.074l3.94 13.267c1.162 3.969-1.105 8.136-5.046 9.298-3.969 1.162-8.136-1.105-9.298-5.074zm-12.842-43.116c-1.162-3.969 1.105-8.136 5.074-9.298s8.136 1.105 9.298 5.074l3.94 13.295c1.162 3.94-1.105 8.107-5.074 9.269s-8.107-1.105-9.27-5.074zm-71.065 38.891c1.19-3.968 5.329-6.236 9.298-5.074 3.969 1.163 6.236 5.33 5.074 9.299l-3.941 13.266c-1.19 3.969-5.329 6.236-9.298 5.074-3.968-1.162-6.235-5.329-5.073-9.298zm12.841-43.115c1.163-3.969 5.301-6.236 9.27-5.074s6.237 5.329 5.075 9.298l-3.941 13.267c-1.162 3.969-5.329 6.236-9.297 5.074-3.969-1.162-6.236-5.329-5.074-9.269zm156.844 37.814c-3.062-2.749-3.289-7.483-.511-10.545 2.75-3.061 7.483-3.288 10.545-.51l10.262 9.298c3.061 2.749 3.288 7.483.539 10.545-2.778 3.032-7.484 3.288-10.546.51zm-33.336-30.16c-3.062-2.778-3.288-7.484-.539-10.546 2.778-3.062 7.483-3.288 10.546-.539l10.289 9.299c3.062 2.778 3.288 7.483.511 10.545-2.75 3.062-7.483 3.288-10.545.539zm-217.789 19.106c3.062-2.778 7.768-2.551 10.545.51 2.75 3.061 2.523 7.796-.538 10.545l-10.262 9.298c-3.062 2.778-7.795 2.522-10.545-.51-2.778-3.061-2.552-7.796.51-10.545zm33.335-30.191c3.062-2.749 7.796-2.522 10.545.539 2.778 3.062 2.552 7.768-.51 10.546l-10.29 9.298c-3.061 2.749-7.768 2.522-10.545-.539-2.75-3.061-2.523-7.767.538-10.545zm89.747 185.447c0-4.139 3.345-7.484 7.483-7.484s7.512 3.346 7.512 7.484v13.861c0 4.139-3.373 7.483-7.512 7.483s-7.483-3.345-7.483-7.483zm0-44.988c0-4.139 3.345-7.483 7.483-7.483s7.512 3.345 7.512 7.483v13.861c0 4.139-3.373 7.512-7.512 7.512s-7.483-3.373-7.483-7.512zm-29.141-209.056c0-4.168 3.373-7.513 7.512-7.513s7.484 3.345 7.484 7.513v19.389c0 4.167-3.346 7.512-7.484 7.512s-7.512-3.345-7.512-7.512zm58.253 0c0-4.168 3.345-7.513 7.512-7.513 4.139 0 7.483 3.345 7.483 7.513v19.389c0 4.167-3.345 7.512-7.483 7.512-4.167 0-7.512-3.345-7.512-7.512zm-29.112 0c0-4.168 3.345-7.513 7.483-7.513s7.512 3.345 7.512 7.513v19.389c0 4.167-3.373 7.512-7.512 7.512s-7.483-3.345-7.483-7.512zm40.224-80.506 56.409-28.177v-23.612h-56.409zm71.405-51.789v28.204c0 2.722-1.53 5.358-4.167 6.661l-67.238 33.649v30.047h50.259c5.442 0 8.589 5.442 6.888 10.488l-24.066 71.235c-1.021 3.033-3.883 5.131-7.086 5.131h-41.756c-4.139 0-7.483-3.373-7.483-7.512s3.345-7.512 7.483-7.512h36.398l19.191-56.808c-48.359 0-96.748 0-145.136 0l19.19 56.808h36.397c4.139 0 7.512 3.373 7.512 7.512s-3.373 7.512-7.512 7.512h-41.755c-3.516 0-6.463-2.438-7.257-5.697l-24.095-71.265c-1.615-4.848 2.069-9.893 7.087-9.893h50.259v-30.047l-67.238-33.649c-2.523-1.246-4.168-3.826-4.168-6.661v-28.203h-117.157c-9.553 0-18.227-3.912-24.52-10.177-6.264-6.293-10.176-14.967-10.176-24.492 0-9.553 3.912-18.227 10.177-24.52 6.293-6.265 14.967-10.177 24.52-10.177h51.847c4.139 0 7.512 3.374 7.512 7.512 0 4.139-3.373 7.483-7.512 7.483h-51.848c-5.414 0-10.347 2.211-13.918 5.783-3.571 3.571-5.782 8.504-5.782 13.918 0 5.386 2.211 10.319 5.782 13.891 3.571 3.571 8.504 5.782 13.918 5.782h369.274c4.139 0 7.512 3.346 7.512 7.484 0 4.139-3.373 7.512-7.512 7.512h-43.824zm-193.268 0v23.612l56.382 28.177v-51.789zm106.867 0h-35.489v98.562h35.489z" fill="#null"/></g></svg>
